<svg height="486pt" viewBox="0 -13 486.00004 486" width="486pt" xmlns="http://www.w3.org/2000/svg"><path d="m456.839844 208.699219c-39.453125 47.820312-107.574219 60.34375-161.457032 29.679687-53.878906-30.660156-77.90625-95.625-56.941406-153.964844 20.960938-58.34375 80.839844-93.160156 141.910156-82.523437 61.074219 10.640625 105.648438 63.65625 105.648438 125.648437.023438 29.625-10.289062 58.324219-29.160156 81.160157zm0 0" fill="#00efd1"/><path d="m456.839844 208.699219v211.300781c0 22.089844-17.910156 40-40 40h-376.839844c-22.089844 0-40-17.910156-40-40v-261.03125h234.441406l.359375-.089844c11.816407 46.589844 48.820313 82.582032 95.71875 93.105469 46.898438 10.523437 95.730469-6.210937 126.320313-43.285156zm-245.261719 198.410156v-191.988281h-149.726563v191.988281zm0 0" fill="#fedb41"/><path d="m40 68.96875h205.140625c-14.28125 27.710938-17.957031 59.683594-10.339844 89.910156l-.359375.089844h-234.441406v-50c0-22.089844 17.910156-40 40-40zm156.921875 44.75c0-10.90625-8.84375-19.75-19.75-19.75-10.910156 0-19.75 8.84375-19.75 19.75 0 10.910156 8.839844 19.75 19.75 19.75 10.90625.003906 19.75-8.839844 19.75-19.75zm-65 0c0-10.90625-8.84375-19.75-19.75-19.75-10.910156 0-19.75 8.84375-19.75 19.75 0 10.910156 8.839844 19.75 19.75 19.75 10.90625.003906 19.75-8.839844 19.75-19.75zm-65 0c0-10.90625-8.84375-19.75-19.75-19.75-10.910156 0-19.75 8.84375-19.75 19.75 0 10.910156 8.839844 19.75 19.75 19.75 10.90625.003906 19.75-8.839844 19.75-19.75zm0 0" fill="#00acea"/><path d="m61.851562 215.121094h149.726563v191.988281h-149.726563zm0 0" fill="#00efd1"/><path d="m196.921875 113.71875c0 10.910156-8.84375 19.75-19.75 19.75-10.910156 0-19.75-8.839844-19.75-19.75 0-10.90625 8.839844-19.75 19.75-19.75 10.90625 0 19.75 8.84375 19.75 19.75zm0 0" fill="#fedb41"/><path d="m131.921875 113.71875c0 10.910156-8.84375 19.75-19.75 19.75-10.910156 0-19.75-8.839844-19.75-19.75 0-10.90625 8.839844-19.75 19.75-19.75 10.90625 0 19.75 8.84375 19.75 19.75zm0 0" fill="#fedb41"/><path d="m66.921875 113.71875c0 10.910156-8.84375 19.75-19.75 19.75-10.910156 0-19.75-8.839844-19.75-19.75 0-10.90625 8.839844-19.75 19.75-19.75 10.90625 0 19.75 8.84375 19.75 19.75zm0 0" fill="#fedb41"/><g fill="#d4e1f4"><path d="m335 272h-87c-5.523438 0-10-4.476562-10-10s4.476562-10 10-10h87c5.523438 0 10 4.476562 10 10s-4.476562 10-10 10zm0 0"/><path d="m395 312h-147c-5.523438 0-10-4.476562-10-10s4.476562-10 10-10h147c5.523438 0 10 4.476562 10 10s-4.476562 10-10 10zm0 0"/><path d="m395 352h-147c-5.523438 0-10-4.476562-10-10s4.476562-10 10-10h147c5.523438 0 10 4.476562 10 10s-4.476562 10-10 10zm0 0"/><path d="m395 392h-147c-5.523438 0-10-4.476562-10-10s4.476562-10 10-10h147c5.523438 0 10 4.476562 10 10s-4.476562 10-10 10zm0 0"/></g><path d="m364.960938 73.601562c-3.878907-3.761718-10.042969-3.761718-13.921876 0l-38.148437 36.976563c-3.914063 3.855469-3.988281 10.144531-.164063 14.089844 3.820313 3.941406 10.109376 4.0625 14.082032.273437l21.191406-20.542968v68.820312c0 5.523438 4.476562 10 10 10s10-4.476562 10-10v-68.820312l21.191406 20.542968c2.558594 2.519532 6.269532 3.472656 9.726563 2.496094 3.457031-.972656 6.125-3.726562 6.992187-7.210938.867188-3.484374-.203125-7.167968-2.800781-9.648437zm0 0" fill="#00acea"/></svg>