<svg height="464pt" viewBox="0 0 464 464" width="464pt" xmlns="http://www.w3.org/2000/svg"><path d="m192 64v-32h-64l-32 48v112h176v-128zm0 0" fill="#f6bf9b"/><path d="m272 336v-32h64l32 48v112h-176v-128zm0 0" fill="#f6bf9b"/><path d="m0 80h96v112h-96zm0 0" fill="#238892"/><g fill="#d3843d"><path d="m184 88h88v16h-88zm0 0"/><path d="m184 120h88v16h-88zm0 0"/><path d="m184 152h88v16h-88zm0 0"/><path d="m136 56h56v16h-56zm0 0"/></g><path d="m464 464h-96v-112h96zm0 0" fill="#e97424"/><path d="m192 360h88v16h-88zm0 0" fill="#d3843d"/><path d="m192 392h88v16h-88zm0 0" fill="#d3843d"/><path d="m192 424h88v16h-88zm0 0" fill="#d3843d"/><path d="m272 328h56v16h-56zm0 0" fill="#d3843d"/><path d="m192 0v64h80v80h176v-144zm0 0" fill="#36afad"/><path d="m232 56h-16v-24c0-4.417969 3.582031-8 8-8h24v16h-16zm0 0" fill="#fdbd40"/><path d="m424 56h-16v-16h-16v-16h24c4.417969 0 8 3.582031 8 8zm0 0" fill="#fdbd40"/><path d="m416 120h-24v-16h16v-16h16v24c0 4.417969-3.582031 8-8 8zm0 0" fill="#fdbd40"/><path d="m344 48v-16h-16v-8h-16v8h-8c-4.417969 0-8 3.582031-8 8v32c0 4.417969 3.582031 8 8 8h24v16h-32v16h16v8h16v-8h8c4.417969 0 8-3.582031 8-8v-32c0-4.417969-3.582031-8-8-8h-24v-16zm0 0" fill="#fdbd40"/><path d="m272 336h-80v96h-32v-176h112zm0 0" fill="#e9686a"/><path d="m144 224h144v32h-144zm0 0" fill="#aabece"/><path d="m144 432h48v32h-48zm0 0" fill="#aabece"/><path d="m232 280h16v56h-16zm0 0" fill="#fdbd40"/></svg>