<?xml version="1.0" encoding="iso-8859-1"?>
<!-- Generator: Adobe Illustrator 21.0.0, SVG Export Plug-In . SVG Version: 6.00 Build 0)  -->
<svg xmlns="http://www.w3.org/2000/svg" xmlns:xlink="http://www.w3.org/1999/xlink" version="1.1" id="Capa_1" x="0px" y="0px" viewBox="0 0 512 512" style="enable-background:new 0 0 512 512;" xml:space="preserve" width="512" height="512">
<g>
	<path style="fill:#50536E;" d="M465.5,285.36v206.036c0,6.542-3.045,12.372-7.797,16.143c-3.507,2.792-7.951,4.461-12.775,4.461   H54.071c-4.824,0-9.267-1.669-12.775-4.461c-4.752-3.77-7.797-9.601-7.797-16.143V285.36c0-6.542,3.045-12.372,7.797-16.143   c3.507-2.792,7.951-4.461,12.775-4.461h390.857c4.824,0,9.267,1.669,12.775,4.461C462.455,272.988,465.5,278.818,465.5,285.36z"/>
	<path style="fill:#D8D5ED;" d="M407.754,455.34H91.246c-2.209,0-4-1.791-4-4V44.818c0-2.209,1.791-4,4-4h316.507   c2.209,0,4,1.791,4,4V451.34C411.754,453.549,409.963,455.34,407.754,455.34z"/>
	<path style="fill:#BEBADE;" d="M380.848,40.818V455.34h26.905c2.209,0,4-1.791,4-4V44.818c0-2.209-1.791-4-4-4H380.848z"/>
	<path style="fill:#FFBD54;" d="M465.5,285.36v206.036c0,6.542-3.045,12.372-7.797,16.143c-3.507,2.792-7.951,4.461-12.775,4.461   H54.071c-4.824,0-9.267-1.669-12.775-4.461L249.5,388.378l208.203-119.161C462.455,272.988,465.5,278.818,465.5,285.36z"/>
	<path style="fill:#FFD659;" d="M457.703,507.539c-3.507,2.792-7.951,4.461-12.775,4.461H54.071c-4.824,0-9.267-1.669-12.775-4.461   c-4.752-3.77-7.797-9.601-7.797-16.143V285.36c0-6.542,3.045-12.372,7.797-16.143L249.5,388.378L457.703,507.539z"/>
	<g>
		<path style="fill:#50536E;" d="M144.421,133.128h222.52c4.143,0,7.5-3.357,7.5-7.5s-3.357-7.5-7.5-7.5h-222.52    c-4.142,0-7.5,3.357-7.5,7.5S140.279,133.128,144.421,133.128z"/>
		<path style="fill:#50536E;" d="M366.941,155.214h-222.52c-4.142,0-7.5,3.357-7.5,7.5s3.358,7.5,7.5,7.5h222.52    c4.143,0,7.5-3.357,7.5-7.5S371.083,155.214,366.941,155.214z"/>
		<path style="fill:#50536E;" d="M269.76,192.301H144.421c-4.142,0-7.5,3.357-7.5,7.5s3.358,7.5,7.5,7.5H269.76    c4.143,0,7.5-3.357,7.5-7.5S273.903,192.301,269.76,192.301z"/>
	</g>
	<g>
		<path style="fill:#FFD659;" d="M365.957,212.673l-114.754,58.734l-56.002-56.002l58.734-114.754c0.711-1.39,2.57-1.683,3.674-0.58    l108.927,108.927C367.64,210.103,367.347,211.962,365.957,212.673z"/>
		<path style="fill:#FF2C5C;" d="M206.813,304.96l-2.914,2.914c-12.472,12.472-32.692,12.472-45.164,0l0,0    c-12.472-12.472-12.472-32.692,0-45.164l2.914-2.914L206.813,304.96z"/>
		<path style="fill:#50536E;" d="M278.312,336.901L278.312,336.901c-6.035,6.035-15.819,6.035-21.853,0l-63.375-63.375    l21.853-21.853l63.375,63.375C284.346,321.082,284.346,330.866,278.312,336.901z"/>
		<path style="fill:#FFBD54;" d="M253.936,100.652l-13.357,26.096l99.282,99.282l26.096-13.357c1.39-0.711,1.683-2.57,0.58-3.674    L257.61,100.072C256.507,98.969,254.647,99.262,253.936,100.652z"/>
		<path style="fill:#4FC6F5;" d="M253.416,274.383l-37.622,37.622c-1.68,1.68-4.405,1.68-6.085,0L154.604,256.9    c-1.68-1.68-1.68-4.405,0-6.085l37.622-37.622c1.68-1.68,4.405-1.68,6.085,0l55.104,55.104    C255.096,269.978,255.096,272.703,253.416,274.383z"/>
		<path style="fill:#3BB3E3;" d="M192.226,213.193l-21.853,21.853c1.68-1.68,4.405-1.68,6.085,0l55.104,55.104    c1.68,1.68,1.68,4.405,0,6.085l21.853-21.853c1.68-1.68,1.68-4.405,0-6.085l-55.104-55.104    C196.631,211.513,193.906,211.513,192.226,213.193z"/>
	</g>
	<path style="fill:#FF2C5C;" d="M478.5,72c0,6.188-6.476,11.443-8.001,17.151c-1.578,5.906,1.356,13.686-1.636,18.856   c-3.035,5.245-11.268,6.575-15.524,10.832c-4.257,4.257-5.587,12.49-10.832,15.524c-5.17,2.991-12.95,0.057-18.856,1.636   C417.943,137.524,412.689,144,406.5,144c-6.188,0-11.443-6.476-17.151-8.001c-5.906-1.578-13.686,1.356-18.856-1.636   c-5.245-3.035-6.575-11.268-10.832-15.524c-4.257-4.257-12.49-5.587-15.524-10.832c-2.991-5.17-0.057-12.95-1.636-18.856   C340.976,83.443,334.5,78.189,334.5,72c0-6.188,6.476-11.443,8.001-17.151c1.578-5.906-1.356-13.686,1.636-18.856   c3.035-5.245,11.268-6.575,15.524-10.832c4.257-4.257,5.587-12.49,10.832-15.524c5.17-2.991,12.95-0.057,18.856-1.636   C395.057,6.476,400.311,0,406.5,0c6.188,0,11.443,6.476,17.151,8.001c5.906,1.578,13.686-1.356,18.856,1.636   c5.245,3.035,6.575,11.268,10.832,15.524c4.257,4.257,12.49,5.587,15.524,10.832c2.991,5.17,0.057,12.95,1.636,18.856   C472.024,60.557,478.5,65.811,478.5,72z"/>
	<g>
		<circle style="fill:#FFD659;" cx="383.462" cy="49.075" r="7.726"/>
		<circle style="fill:#FFD659;" cx="429.537" cy="95.15" r="7.726"/>
		<path style="fill:#FFD659;" d="M435.2,43.412c-2.93-2.928-7.678-2.928-10.607,0L377.8,90.206c-2.929,2.93-2.929,7.678,0,10.607    c1.465,1.464,3.385,2.196,5.304,2.196s3.839-0.732,5.304-2.196L435.2,54.02C438.129,51.09,438.129,46.342,435.2,43.412z"/>
	</g>
</g>















</svg>
