<svg height="487pt" viewBox="0 -78 487.00064 487" width="487pt" xmlns="http://www.w3.org/2000/svg"><path d="m248.421875 265.589844c-28.375-50.160156-19.597656-113.113282 21.417969-153.59375 41.015625-40.480469 104.078125-48.433594 153.859375-19.40625 49.78125 29.03125 73.917969 87.832031 58.886719 143.464844-15.03125 55.632812-65.496094 94.277343-123.125 94.285156-46.007813.121094-88.488282-24.648438-111.039063-64.75zm0 0" fill="#00efd1"/><path d="m298.601562 67.527344c14.230469-.019532 28.285157 3.140625 41.140626 9.25-41.339844 6.488281-76.871094 32.832031-95.089844 70.5-18.21875 37.667968-16.808594 81.878906 3.769531 118.3125h-184.800781c-16.933594-.011719-33.164063-6.765625-45.101563-18.773438-11.941406-12.007812-18.6054685-28.277344-18.519531-45.207031 0-.085937.00390625-.167969.0117188-.25l.0976562-3.359375c.070313-40.160156 27.460937-74.382812 65.070313-83.03125v-.03125c.011718-54.328125 38.054687-101.230469 91.210937-112.457031 53.15625-11.226563 106.914063 16.292969 128.890625 65.976562 4.414062-.617187 8.863281-.929687 13.320312-.929687zm0 0" fill="#00acea"/><path d="m404.332031 205.078125c-3.941406-3.964844-10.328125-4.0625-14.390625-.21875l-21.441406 20.539063v-68.820313c0-5.523437-4.476562-10-10-10s-10 4.476563-10 10v68.820313l-20.9375-20.539063c-1.882812-1.847656-4.421875-2.863281-7.054688-2.820313-2.636718.042969-5.140624 1.136719-6.964843 3.039063-3.824219 3.984375-3.699219 10.316406.285156 14.140625l38.183594 36.980469c3.886719 3.757812 10.054687 3.757812 13.941406 0l38.152344-36.980469c3.96875-3.84375 4.070312-10.171875.226562-14.140625zm0 0" fill="#d4e1f4"/></svg>