<?xml version="1.0" encoding="iso-8859-1"?>
<!-- Generator: Adobe Illustrator 19.0.0, SVG Export Plug-In . SVG Version: 6.00 Build 0)  -->
<svg version="1.1" id="Capa_1" xmlns="http://www.w3.org/2000/svg" xmlns:xlink="http://www.w3.org/1999/xlink" x="0px" y="0px"
	 viewBox="0 0 512 512" style="enable-background:new 0 0 512 512;" xml:space="preserve">
<rect x="108.591" y="180.139" style="fill:#2DADE3;" width="121.784" height="15.223"/>
<path style="fill:#4F4F4F;" d="M421.169,329.832h-15.223V286.7h-45.669v43.132h-15.223v-50.743c0-4.204,3.408-7.612,7.612-7.612
	h60.892c4.204,0,7.611,3.408,7.611,7.612V329.832z"/>
<path style="fill:#2DADE3;" d="M291.267,180.139h-60.892v15.223h60.892c46.167,0,83.726,37.559,83.726,83.726
	c0,4.204,3.408,7.611,7.611,7.611s7.612-3.408,7.612-7.611C390.216,224.528,345.828,180.139,291.267,180.139z"/>
<path style="fill:#808080;" d="M192.317,334.906v153.846l-25.24,8.413c-3.988,1.329-6.143,5.64-4.815,9.628
	c1.329,3.988,5.642,6.144,9.628,4.815l30.444-10.149c3.108-1.036,5.204-3.945,5.204-7.221V350.129L192.317,334.906z"/>
<path style="fill:#696969;" d="M268.432,334.906v153.846l25.24,8.413c3.988,1.329,6.143,5.64,4.815,9.628
	c-1.329,3.988-5.642,6.144-9.628,4.815l-30.444-10.149c-3.108-1.036-5.204-3.945-5.204-7.221V350.129L268.432,334.906z"/>
<path style="fill:#B3B3B3;" d="M92.353,121.784c-8.967,0-16.238,7.269-16.238,16.238v27.063h32.476v-27.063
	C108.591,129.053,101.321,121.784,92.353,121.784z"/>
<path style="fill:#696969;" d="M215.152,243.568l15.223,91.338c25.222,0,45.669-20.447,45.669-45.669L215.152,243.568z"/>
<path style="fill:#808080;" d="M184.706,289.237c0,25.222,20.447,45.669,45.669,45.669v-91.338L184.706,289.237z"/>
<polygon style="fill:#DBF4FF;" points="260.821,167.453 237.986,167.453 199.929,228.339 230.375,289.225 260.821,289.237 
	276.044,228.345 "/>
<polygon style="fill:#FFFFFF;" points="230.375,182.664 222.763,167.444 199.929,167.453 184.706,228.345 199.929,289.237 
	230.375,289.225 "/>
<g>
	<path style="fill:#2DADE3;" d="M197.398,167.453c-11.21,0-20.297,9.087-20.297,20.297l-0.006,162.379h30.446V167.453H197.398z"/>
	<path style="fill:#2DADE3;" d="M263.358,167.453h-10.149v182.676h30.446V187.75C283.655,176.541,274.568,167.453,263.358,167.453z"
		/>
</g>
<path style="fill:#FF6337;" d="M222.763,167.453v91.326c0,4.204,3.408,7.612,7.611,7.612c4.204,0,7.611-3.408,7.611-7.612v-91.326
	H222.763z"/>
<polygon style="fill:#A8E5FF;" points="139.037,274.014 108.591,274.014 78.145,220.733 108.591,152.23 139.037,152.23 "/>
<polygon style="fill:#DBF4FF;" points="108.591,182.676 76.115,152.23 45.669,152.23 45.669,274.014 108.591,274.014 "/>
<rect x="76.115" y="152.23" style="fill:#808080;" width="32.476" height="30.446"/>
<path style="fill:#2DADE3;" d="M60.892,220.733H30.446c-4.204,0-7.611-3.408-7.611-7.611c0-4.204,3.408-7.611,7.611-7.611h30.446
	c4.204,0,7.611,3.408,7.611,7.611C68.503,217.325,65.096,220.733,60.892,220.733z"/>
<polygon style="fill:#4F4F4F;" points="393.261,322.22 413.558,393.261 444.004,393.261 444.004,332.369 "/>
<polygon style="fill:#696969;" points="322.22,332.369 322.22,393.261 413.558,393.261 413.558,312.071 "/>
<path style="fill:#CCCCCC;" d="M375.5,322.221v25.372c0,4.204,3.408,7.611,7.612,7.611s7.611-3.408,7.611-7.611v-25.372H375.5z"/>
<path style="fill:#FFB4A9;" d="M257.776,54.803h-27.401v82.204c25.219,0,45.669-20.45,45.669-45.669
	C276.044,76.399,268.868,63.125,257.776,54.803z"/>
<path style="fill:#FFD9D4;" d="M243.771,69.66c1.167,6.455,1.827,13.833,1.827,21.678c0,25.219-6.82,45.669-15.223,45.669
	c-25.219,0-45.669-20.45-45.669-45.669L243.771,69.66z"/>
<path style="fill:#40211D;" d="M257.776,54.803c-4.1,5.46-8.799,10.443-14.005,14.858l-13.396-23.991
	C240.645,45.669,250.144,49.069,257.776,54.803z"/>
<path style="fill:#60312C;" d="M184.706,91.338c0-25.219,20.45-45.669,45.669-45.669c5.785,0,10.829,9.702,13.396,23.991
	C227.848,83.178,207.225,91.338,184.706,91.338z"/>
<circle style="fill:#A45E43;" cx="397.828" cy="91.338" r="91.338"/>
<path style="fill:#DBF4FF;" d="M397.828,30.446V152.23c33.576,0,60.892-27.316,60.892-60.892S431.403,30.446,397.828,30.446z"/>
<path style="fill:#FFFFFF;" d="M428.273,91.338c0-33.576-13.658-60.892-30.446-60.892c-33.576,0-60.892,27.316-60.892,60.892
	s27.316,60.892,60.892,60.892C414.615,152.23,428.273,124.914,428.273,91.338z"/>
<path style="fill:#353535;" d="M428.273,98.949h-30.446c-4.204,0-7.611-3.408-7.611-7.611V60.892c0-4.204,3.408-7.611,7.611-7.611
	c4.204,0,7.612,3.408,7.612,7.611v22.834h22.834c4.204,0,7.612,3.408,7.612,7.611S432.477,98.949,428.273,98.949z"/>
<polygon style="fill:#696969;" points="413.558,301.923 378.038,317.146 413.558,332.369 444.004,332.369 444.004,301.923 "/>
<rect x="322.22" y="301.923" style="fill:#808080;" width="91.338" height="30.446"/>
<g>
</g>
<g>
</g>
<g>
</g>
<g>
</g>
<g>
</g>
<g>
</g>
<g>
</g>
<g>
</g>
<g>
</g>
<g>
</g>
<g>
</g>
<g>
</g>
<g>
</g>
<g>
</g>
<g>
</g>
</svg>
