<?xml version="1.0" encoding="iso-8859-1"?>
<!-- Generator: Adobe Illustrator 19.0.0, SVG Export Plug-In . SVG Version: 6.00 Build 0)  -->
<svg version="1.1" id="Capa_1" xmlns="http://www.w3.org/2000/svg" xmlns:xlink="http://www.w3.org/1999/xlink" x="0px" y="0px"
	 viewBox="0 0 512 512" style="enable-background:new 0 0 512 512;" xml:space="preserve">
<rect x="160.542" y="34.712" style="fill:#87CED9;" width="329.763" height="208.271"/>
<polygon style="fill:#7DC6D1;" points="192.807,242.983 490.305,242.983 490.305,34.712 440.398,34.712 "/>
<path style="fill:#88B337;" d="M422.99,87.04l-34.712-8.678l-4.217,16.835l16.254,4.061l-65.866,46.106l-38.313-30.651
	c-3.037-2.421-7.307-2.534-10.466-0.278l-60.746,43.39l10.084,14.11l55.409-39.572l38.261,30.616
	c3.011,2.412,7.255,2.551,10.414,0.33l73.112-51.183v18.041h17.356V95.458C429.559,91.474,426.852,88.003,422.99,87.04z"/>
<path id="SVGCleanerId_0" style="fill:#FEC9A3;" d="M446.915,364.475L446.915,364.475c19.17,0,34.712,15.542,34.712,34.712v17.356
	c0,19.17-15.542,34.712-34.712,34.712l0,0c-19.17,0-34.712-15.542-34.712-34.712v-17.356
	C412.203,380.017,427.746,364.475,446.915,364.475z"/>
<path style="fill:#4398D1;" d="M472.949,451.254h-52.068c-19.17,0-34.712,15.542-34.712,34.712V512h121.492v-26.034
	C507.661,466.796,492.119,451.254,472.949,451.254z"/>
<path style="fill:#FEC9A3;" d="M325.424,364.475L325.424,364.475c19.17,0,34.712,15.542,34.712,34.712v17.356
	c0,19.17-15.542,34.712-34.712,34.712l0,0c-19.17,0-34.712-15.542-34.712-34.712v-17.356
	C290.712,380.017,306.254,364.475,325.424,364.475z"/>
<path style="fill:#4398D1;" d="M351.458,451.254H299.39c-19.17,0-34.712,15.542-34.712,34.712V512h121.492v-26.034
	C386.169,466.796,370.627,451.254,351.458,451.254z"/>
<path style="fill:#FEC9A3;" d="M203.932,364.475L203.932,364.475c19.17,0,34.712,15.542,34.712,34.712v17.356
	c0,19.17-15.542,34.712-34.712,34.712l0,0c-19.17,0-34.712-15.542-34.712-34.712v-17.356
	C169.22,380.017,184.763,364.475,203.932,364.475z"/>
<g>
	<path style="fill:#FABD91;" d="M213.704,366.045c4.946,7.194,7.593,15.733,7.585,24.463v21.695
		c-0.035,16.228-9.164,31.058-23.621,38.417c18.649,3.636,36.708-8.539,40.344-27.188c0.443-2.274,0.651-4.582,0.633-6.89v-17.356
		C238.609,383.826,228.447,370.332,213.704,366.045z"/>
	<path style="fill:#FABD91;" d="M335.195,366.045c4.946,7.194,7.593,15.733,7.585,24.463v21.695
		c-0.035,16.228-9.164,31.058-23.621,38.417c18.649,3.636,36.708-8.539,40.344-27.188c0.443-2.274,0.651-4.582,0.634-6.89v-17.356
		C360.101,383.826,349.939,370.332,335.195,366.045z"/>
</g>
<g>
	<path id="SVGCleanerId_0_1_" style="fill:#FEC9A3;" d="M446.915,364.475L446.915,364.475c19.17,0,34.712,15.542,34.712,34.712
		v17.356c0,19.17-15.542,34.712-34.712,34.712l0,0c-19.17,0-34.712-15.542-34.712-34.712v-17.356
		C412.203,380.017,427.746,364.475,446.915,364.475z"/>
</g>
<path style="fill:#FABD91;" d="M456.687,366.045c4.946,7.194,7.593,15.733,7.585,24.463v21.695
	c-0.035,16.228-9.164,31.058-23.621,38.417c18.649,3.636,36.708-8.539,40.344-27.188c0.443-2.274,0.651-4.582,0.634-6.89v-17.356
	C481.592,383.826,471.431,370.332,456.687,366.045z"/>
<path style="fill:#4398D1;" d="M229.966,451.254h-52.068c-19.17,0-34.712,15.542-34.712,34.712V512h121.492v-26.034
	C264.678,466.796,249.136,451.254,229.966,451.254z"/>
<polygon style="fill:#3B86B8;" points="390.474,322.23 334.102,290.018 334.102,242.983 316.746,242.983 316.746,290.018 
	260.374,322.23 268.982,337.295 316.746,310.003 316.746,338.441 334.102,338.441 334.102,310.003 381.865,337.295 "/>
<g>
	<rect x="143.186" style="fill:#4398D1;" width="364.475" height="34.712"/>
	<rect x="143.186" y="234.305" style="fill:#4398D1;" width="364.475" height="17.356"/>
</g>
<path style="fill:#FEC9A3;" d="M73.763,86.78L73.763,86.78c19.17,0,34.712,15.542,34.712,34.712v17.356
	c0,19.17-15.542,34.712-34.712,34.712l0,0c-19.17,0-34.712-15.542-34.712-34.712v-17.356C39.051,102.322,54.593,86.78,73.763,86.78z
	"/>
<polygon style="fill:#4398D1;" points="125.831,433.898 21.695,433.898 39.051,407.864 39.051,295.051 108.475,295.051 
	108.475,407.864 "/>
<rect x="65.085" y="321.085" style="fill:#3685BA;" width="17.356" height="112.814"/>
<rect x="4.339" y="277.695" style="fill:#FEC9A3;" width="34.712" height="34.712"/>
<path style="fill:#F0E4D6;" d="M156.594,208.271l-4.729,13.017l-8.461-23.266c-5.346-14.683-19.3-24.463-34.929-24.463H39.051
	c-19.17,0-34.712,15.542-34.712,34.712v69.424h34.712v17.356h69.424v-86.78l18.623,37.255c6.621,13.243,22.728,18.606,35.962,11.984
	c5.875-2.933,10.466-7.923,12.904-14.024l14.084-35.215H156.594z"/>
<polygon style="fill:#FEC9A3;" points="203.932,173.559 169.22,173.559 156.594,208.271 190.047,208.271 "/>
<rect x="30.373" y="208.271" style="fill:#E0D2C1;" width="17.356" height="86.78"/>
<rect x="65.085" y="173.559" style="fill:#4398D1;" width="17.356" height="95.458"/>
<rect x="160.542" y="34.712" style="fill:#7DC6D1;" width="329.763" height="17.356"/>
<g>
	<path style="fill:#3E8FC9;" d="M264.678,485.966c-0.026-15.568-10.457-29.201-25.47-33.306
		c-16.931,24.463-39.198,44.752-65.119,59.34h90.589V485.966z"/>
	<path style="fill:#3E8FC9;" d="M386.169,485.966c-0.026-15.568-10.457-29.201-25.47-33.306
		c-16.931,24.463-39.198,44.752-65.119,59.34h90.589V485.966z"/>
	<path style="fill:#3E8FC9;" d="M507.661,485.966c-0.026-15.568-10.457-29.201-25.47-33.306
		c-16.931,24.463-39.198,44.752-65.119,59.34h90.589V485.966z"/>
</g>
<path style="fill:#FABD91;" d="M83.534,88.35c4.946,7.194,7.593,15.733,7.585,24.463v21.695
	c-0.035,16.228-9.164,31.058-23.621,38.417c18.649,3.636,36.708-8.539,40.344-27.188c0.443-2.274,0.651-4.582,0.633-6.89v-17.356
	C108.44,106.132,98.278,92.637,83.534,88.35z"/>
<g>
</g>
<g>
</g>
<g>
</g>
<g>
</g>
<g>
</g>
<g>
</g>
<g>
</g>
<g>
</g>
<g>
</g>
<g>
</g>
<g>
</g>
<g>
</g>
<g>
</g>
<g>
</g>
<g>
</g>
</svg>
